<svg xmlns="http://www.w3.org/2000/svg" xmlns:xlink="http://www.w3.org/1999/xlink" viewBox="0 0 65 65" fill="#fff" fill-rule="evenodd" stroke="#000" stroke-linecap="round" stroke-linejoin="round"><use xlink:href="#C" x=".5" y=".5"/><defs><linearGradient x1="15.79%" y1="14.74%" x2="91.00%" y2="85.23%" id="A"><stop offset="0%"/><stop offset="100%" stop-color="#fff"/></linearGradient><linearGradient x1="82.14%" y1="85.24%" x2="-3.11%" y2="14.79%" id="B"><stop offset="0%"/><stop offset="100%" stop-color="#fff"/></linearGradient></defs><symbol id="C" overflow="visible"><g stroke="none"><path d="M31.946 47.64c14.159 19.302 28.016-5.388 28-20.235C59.917 9.851 42.125.04 31.934.04 15.577.04 0 13.558 0 32.054 0 52.612 17.856 64 31.934 64c-3.186-.459-13.802-2.734-13.945-27.187-.096-16.539 5.395-23.146 13.922-20.24.191.071 9.406 3.706 9.406 15.58 0 11.824-9.371 15.486-9.371 15.486z" fill="url(#A)"/><path d="M31.929 16.56c-9.356-3.224-20.817 4.487-20.817 19.932C11.112 61.711 29.8 64 32.066 64 48.423 64 64 50.481 64 31.985 64 11.427 46.144.04 32.066.04c3.899-.54 21.016 4.22 21.016 27.615 0 15.256-12.781 23.562-21.094 20.013-.191-.071-9.406-3.706-9.406-15.58 0-11.824 9.347-15.527 9.347-15.527z" fill="url(#B)"/></g></symbol></svg>