<svg xmlns="http://www.w3.org/2000/svg" xmlns:xlink="http://www.w3.org/1999/xlink" viewBox="0 0 65 41" fill="#fff" fill-rule="evenodd" stroke="#000" stroke-linecap="round" stroke-linejoin="round"><style><![CDATA[.B{fill-rule:nonzero}.C{fill:#ccac8d}.D{fill:#442823}.E{fill:#56332b}.F{fill:#efcca3}.G{stroke-width:2.078}]]></style><use xlink:href="#A" x=".5" y=".5"/><symbol id="A" overflow="visible"><g stroke="none" class="B"><path d="M53.554 12.288c-.1-2.198.2-4.146-.799-5.794C50.357 2.398 44.363 0 32.374 0v.35h-.25.25V0c-11.988 0-18.282 2.398-20.68 6.544-.949 1.698-.849 3.597-.999 5.794-.1 1.748-.899 3.597-.549 5.595.4 2.598.549 5.195.949 7.593.3 1.948 2.997 3.596 3.247 5.445.699 5.095 5.994 7.443 17.983 7.443v.4h-.25.3v-.4c11.988 0 17.084-2.348 17.733-7.443.25-1.898 2.747-3.497 3.047-5.445.4-2.398.549-4.995.949-7.593.35-1.998-.45-3.896-.55-5.645z" class="F"/><g class="C"><path d="M32.175 14.086c2.148.05 3.646 1.399 5.045 2.647 1.648 1.449 4.446 2.448 5.595 3.697s2.647 2.497 3.197 4.446.699 4.446.699 5.095.35.5 1.349 0c2.348-1.149 4.945-4.246 4.945-4.246-.3 1.948-2.847 3.696-3.097 5.545-.599 5.095-5.545 7.543-17.783 7.543h-.05.3"/><path d="M40.067 10.19c.45 1.549 2.048 6.793-1.049 5.045 0 0 1.299.749 2.098 3.596.849 2.847 2.897 3.197 2.897 3.197s3.347.649 5.844-1.499c2.098-1.798 2.448-4.995 1.548-7.443-.899-2.398-2.498-3.147-4.845-3.646-2.348-.55-7.043-.999-6.494.749z"/></g><use xlink:href="#C" fill="#000"/><use xlink:href="#D"/><path d="M39.318 15.685s3.946 2.697 6.094 5.345 2.098 3.147 2.098 3.147l-1.548.699s-2.198-4.146-4.895-5.695c-2.747-1.549-3.047-2.847-3.047-2.847z" class="F"/><path d="M32.325 14.086c-2.148.05-3.746 1.399-5.195 2.647-1.648 1.449-4.546 2.448-5.695 3.697s-2.697 2.497-3.247 4.446-.749 4.446-.749 5.095.1.699-1.349 0c-2.348-1.099-4.945-4.246-4.945-4.246.3 1.948 2.847 3.696 3.097 5.545.699 5.095 5.644 7.543 17.883 7.543h.25" class="C"/><path d="M43.913 22.529c-2.398-2.947-6.244-5.695-11.589-5.695h-.05c-5.345 0-9.191 2.747-11.589 5.695-2.498 3.047-2.298 4.246-2.298 7.143 0 10.49 3.696 7.493 6.144 8.791 2.498 1.249 5.095.849 7.742.849h.05c2.697 0 5.245.35 7.743-.899 2.448-1.249 6.144 1.848 6.144-8.642.05-2.897.2-4.196-2.298-7.243z" class="E"/><g class="D"><path d="M32.075 19.431s-.35 4.845-1.049 5.794l1.299-.3z"/><path d="M32.425 19.431s.35 4.845 1.049 5.794l-1.299-.3z"/></g><path d="M28.229 18.282c-.5-1.149 1.299-2.997 4.146-3.047 2.847 0 4.645 1.848 4.146 3.047s-2.298 1.549-4.146 1.598c-1.798-.05-3.647-.4-4.146-1.598z" class="E"/><path d="M32.375 19.431c0-.2 1.698-.25 2.597-.849 0 0-1.848.599-2.248.35-.4-.2-.499-.799-.499-.799s-.15.599-.45.799c-.35.2-2.448-.35-2.448-.35l2.797.849c0 .15-.05.649-.05.999l.2 4.596c.3.45.2-3.347.2-4.596l-.1-.999z" fill="#000"/></g><path d="M32.475 26.125c.849 0 2.348.599 3.696 1.549-1.299-1.449-2.847-2.448-3.696-2.448-.899 0-2.797 1.099-4.146 2.697 1.399-1.099 3.197-1.798 4.146-1.798z" stroke="#4d4d4d" fill="#7f4a41" class="B G"/><g stroke="none"><g class="D"><path d="M32.125 34.966c-1.898 0-3.746-.599-5.445-1.049-.35-.1-.699.15-1.049.05-3.147-.999-5.694-2.697-7.243-4.845v.5c0 10.49 3.696 7.543 6.144 8.792 2.498 1.249 5.095.849 7.743.849h.05c2.697 0 5.245.35 7.743-.899 2.448-1.249 6.144 1.798 6.144-8.692 0-.4 0-.799.05-1.149-1.449 2.348-4.096 4.196-7.393 5.295-.3.1-.999-.15-1.299-.1-1.798.599-3.397 1.249-5.445 1.249z" class="B"/><path d="M27.38 29.322s-1.249 3.746-.4 5.395l-1.149-.499s.849-3.796 1.549-4.895zm9.89 0s1.249 3.746.4 5.395l1.149-.499s-.899-3.796-1.548-4.895z" class="B"/></g><path d="M24.182 10.19c-.45 1.549-2.048 6.793 1.049 5.045 0 0-1.299.749-2.098 3.596s-2.897 3.197-2.897 3.197-3.347.649-5.844-1.499c-2.098-1.798-2.448-4.995-1.549-7.443s2.498-3.147 4.845-3.646c2.348-.55 6.993-.999 6.494.749z" class="B C"/><path d="M32.325 25.226c1.349 0 5.545 2.897 5.595 6.444v-.2c0-3.697-3.397-6.644-5.595-6.644s-5.595 2.997-5.595 6.644v.2c.05-3.547 4.246-6.444 5.595-6.444z" fill="#000" class="B"/><path d="M32.841 17.683c-.104-.402-.014-.77.2-.825s.47.224.574.626.014.77-.2.825-.47-.224-.574-.626zm-2.153-.215c.123-.396.392-.663.604-.597s.283.438.16.834-.392.663-.604.597-.283-.438-.16-.834z" class="B" fill="#331712"/><use xlink:href="#C" x="-27.524" fill="#000" class="B"/><use xlink:href="#D" x="-25.226" class="B"/></g><path d="M33.623 15.934c0-.05-1.149.499-1.449.55-.3-.05-1.449-.599-1.449-.55h2.897z" stroke="#4d4d4d" fill="#7f4a41" class="B G"/><g stroke="none"><path d="M24.882 15.685s-3.946 2.697-6.094 5.345-2.098 3.147-2.098 3.147l1.549.699s2.198-4.146 4.895-5.695 3.047-2.847 3.047-2.847z" class="B F"/><g class="C"><path d="M16.24 7.692s-1.349 3.696-4.346 5.245c0 0 4.696-.55 4.346-5.245zm31.519 0s1.349 3.696 4.346 5.245c0 0-4.695-.55-4.346-5.245zm-8.542 6.893s-2.947-3.097-6.893-3.197c-.05 0 .1 0 .05 0s.05 0 .05 0c-3.996.1-6.893 3.197-6.893 3.197 3.447-2.398 6.394-2.348 6.893-2.348-.05 0 3.347-.05 6.793 2.348zm-3.447-6.494s-1.499-2.098-3.497-2.148h.1c-1.499.05-3.447 2.148-3.447 2.148 1.698-1.648 3.447-1.598 3.447-1.598s1.648-.05 3.397 1.598zM18.488 23.427s-2.348 1.149-4.046.45h-.05c-1.499-.849-2.248-3.397-2.248-3.397s1.499 4.496 6.344 2.947zm27.374 0s2.348 1.149 4.046.45c1.998-.849 2.298-3.397 2.298-3.397s-1.498 4.496-6.344 2.947zM21.185 7.443c1.299-.25 3.447-.3 5.145.25 2.148.749.4 3.497.849 3.646s1.049-1.898 5.045-1.698c4.046.2 4.496 1.998 5.045 1.698s-.549-4.995 5.495-3.896c0 0-6.344-1.698-6.044 2.897 0 0-3.646-2.797-8.742-.3.05 0 1.349-4.296-6.793-2.597zm22.129 0c.1 0 .15.05.2.05s-.05-.05-.2-.05z" class="B"/><path d="M43.314 7.443zM19.438 1.299s-5.395 6.793-6.194 9.391c-.799 2.647-1.399 13.487-2.098 15.035l-2.498-10.69 4.596-11.139zm25.376 0s5.395 6.793 6.194 9.391c.799 2.647 1.399 13.487 2.098 15.035l2.498-10.69-4.596-11.139z" class="B"/></g><path d="M44.562 1.299s5.794 4.845 7.493 10.44.999 12.388 2.298 13.237c1.848 1.199 3.946-5.944 4.645-6.693 1.099-1.199 4.745-4.246 4.995-4.795s-7.393-8.891-10.74-10.54C49.208 1.049 44.213.9 44.562 1.299z" class="B E"/><path d="M49.508 4.296s6.843 8.742 6.743 19.631l2.747-5.595c-.05 0-2.448-7.143-9.491-14.036z" class="B D"/><path d="M19.437 1.299s-5.794 4.845-7.493 10.44-.999 12.388-2.298 13.237c-1.848 1.199-3.946-5.944-4.645-6.693C3.902 17.084.256 14.037.006 13.487s7.393-8.891 10.74-10.54C14.792 1.049 19.787.9 19.437 1.299z" class="B E"/><path d="M14.492 4.296s-6.843 8.742-6.743 19.631l-2.697-5.595s2.398-7.143 9.441-14.036z" class="B D"/><path d="M10.796 24.127s.499 2.697 1.299 3.547.25-.649.25-.649-.849-.45-.699-3.896-.849.999-.849.999zm42.609 0s-.499 2.697-1.299 3.547-.25-.649-.25-.649.849-.45.699-3.896.849.999.849.999z" class="B C"/><g class="D"><use xlink:href="#E" class="B"/><use xlink:href="#E" x="-2.298" y="2.398" class="B"/><use xlink:href="#E" x="-3.047" class="B"/><use xlink:href="#E" x="9.741" class="B"/><use xlink:href="#E" x="12.038" y="2.398" class="B"/><use xlink:href="#E" x="12.788" class="B"/></g></g></symbol><defs ><path id="C" d="M41.616 15.885c0-2.435 1.961-4.396 4.396-4.396s4.396 1.96 4.396 4.396-1.96 4.396-4.396 4.396-4.396-1.96-4.396-4.396z"/><path id="D" d="M43.714 13.937c0-.636.512-1.149 1.149-1.149s1.149.512 1.149 1.149-.512 1.149-1.149 1.149-1.149-.512-1.149-1.149z"/><path id="E" d="M26.73 22.079a.4.4 0 0 1 .4-.4.4.4 0 0 1 .4.4.4.4 0 0 1-.4.4.4.4 0 0 1-.4-.4z"/></defs></svg>