<svg xmlns="http://www.w3.org/2000/svg" xmlns:xlink="http://www.w3.org/1999/xlink" viewBox="0 0 81 81" fill="#fff" fill-rule="evenodd" stroke="#000" stroke-linecap="round" stroke-linejoin="round"><use xlink:href="#A" x=".5" y=".5"/><symbol id="A" overflow="visible"><g stroke="none"><path d="M47.36 38.347c0-4.132-3.2-7.438-7.2-7.438s-7.2 3.306-7.2 7.438 3.2 7.438 7.2 7.438 7.2-3.306 7.2-7.438z" fill="#b8d432"/><path d="M68.96 25.289c.48-1.653.64-3.306.64-5.124C69.6 9.091 61.12 0 50.72 0c-7.84 0-14.56 5.124-17.44 12.397-2.4-3.14-6.08-4.959-10.24-4.959-7.36 0-13.28 6.446-13.28 14.215a16.81 16.81 0 0 0 .48 3.967C4.32 27.934 0 33.389 0 40.661 0 49.917 7.04 56.86 15.84 56.86h4.64 18.08v-6.777c-2.88-.496-5.44-1.983-7.04-4.297l-6.08 3.306 2.08 4.959-9.28-2.479 3.2-9.917 2.4 4.628 5.92-3.636c-.48-1.322-.8-2.975-.8-4.628 0-1.488.32-2.975.8-4.297h0l-6.24-3.802-2.4 4.463-3.04-9.917 9.44-1.653-2.24 4.132 6.24 3.802c1.76-2.314 4.32-3.967 7.36-4.463v-7.273H34.4l6.08-7.603 6.4 7.603h-4.8v7.273c3.04.496 5.6 2.149 7.36 4.463l6.24-3.802-2.4-4.297 9.44 1.984-3.04 9.752-2.4-4.298-6.24 3.802c.48 1.322.8 2.81.8 4.297s-.32 2.975-.8 4.298l6.24 3.802L60 41.488l2.88 10.248L52.8 54.05l2.56-4.793-6.24-3.802c-1.76 2.479-4.48 4.132-7.36 4.463v6.942h19.52 3.04c8.8 0 15.68-6.942 15.68-16.198 0-7.438-4.64-13.223-11.04-15.372z" fill="#59b4d9"/><path d="M37.6 56.86h4.8v11.57h-4.8z" fill="#3999c6"/><path d="M33.6 73.389c0-3.663 2.855-6.612 6.4-6.612s6.4 2.949 6.4 6.612S43.546 80 40 80s-6.4-2.949-6.4-6.611z" fill="#0072c6"/></g></symbol></svg>