<svg xml:space="preserve" width="1000" height="1000"><path fill="#4A1700" stroke="#000" stroke-miterlimit="10" d="m65.5 404.29 353.65-276.46 5.97-.9c18.59-2.82 39.45-4.24 62.02-4.24 72.2 0 153 14.55 221.69 39.91C794 194.06 858.98 241 896.7 298.36l3.79 5.75v183.61c0 14.04-1.9 24.12-6.14 32.7a40.83 40.83 0 0 1-14.86 16.72v264.12l-814 124.01V404.29z"/><g fill="#995700"><path d="m88 553.79 765-116.54v342.96L88 896.75z"/><path d="M851 439v339.92L89 895.01V555.08l762-116.09m3-3.49-768 117v346l768-117v-346z"/></g><path fill="#4A1700" d="M507 478.03v355.03l164-24.87V453.4z"/><path fill="#4A1700" d="m507.98 833.05 192.98 114.86s78.44 38.36 139.26 40.28c60.82 1.93 62.98-57 62.98-57l-215.29-125.6-179.93 27.46z"/><path fill="#4A1700" d="M840.22 988.2c-19.14 0-40.48-4.14-58.55-11.35-22.42-8.95-38.31-21.89-45.95-37.4C635.02 735.62 465.8 393 464.05 388.55c-4.43-11.22-12.24-24.73-16.1-31.17-9.6-4.9-34.38-17.67-59.42-31.37-68.55-37.51-72.63-45.3-75.44-51L292 233.32v-42.05l19.87-2.77 2.12-.28-12.41-70.31-.38-52.36h.1c-.62-16.87 11.89-19.52 14.49-19.89 4.75-.67 30.33-3.68 31.42-3.8l11.52-1.36 65.11 132.24 52.2-7.36-35.79-90.18-.5-47.62 56.55-7.29c1.15-.16 2.33-.24 3.49-.24 8.07 0 14.81 3.95 18.97 8.14l146.39 115.53.7.7c8.86 8.93 15.67 23.52 17.3 27.18L707 221.67v37.83l-4.46 4.74c-1.8 1.9-39.88 42.23-68.5 68.18 55.92 108.95 277.5 540.18 279.82 544.7l.13.25c2.46 5 4.12 10.15 4.97 15.37l.86 1.35-.2 38.4-.2 1.2c-2.03 13.18-8.67 25.08-19.2 34.42-11.09 9.83-25.66 16.18-43.33 18.9-5.13.78-10.74 1.18-16.67 1.18z"/><path fill="#534741" stroke="#4A1700" stroke-miterlimit="2" d="M690.5 223.32v29.65s-68.03 72.17-90.09 85.51c-22.06 13.34-9.7-26.68-9.7-26.68l99.79-88.48z"/><path fill="#534741" stroke="#4A1700" stroke-miterlimit="10" d="M903.2 931.18c-2.73 17.64-18 34.87-48.8 39.6-32.62 5.01-89.39-9-103.96-38.59 0 0-269.35-545.17-271.12-549.65-6.68-16.92-19.8-37.67-19.8-37.67s-124.7-62.98-131.66-77.1l-19.36-38.32v-24.43l213.88 93.3 380.9 600.5-.08 32.36z"/><path fill="#534741" stroke="#4A1700" stroke-miterlimit="2" d="M456.5 42.51v29.55l56.92 143.19 9.04-39.86zM317.65 65.43l.4 50.88 23.29 131.19h7.96l-2.23-47.41z"/><path fill="#736357" stroke="#4A1700" stroke-miterlimit="10" d="M468.6 326.7s-133.75-68.67-140.7-82.79l-19.33-38.33 214.03-30.2L457.13 42.4l41.47-5.85c5.3-.75 9 3.75 9 3.75l146.6 115.69c7.5 7.54 14.1 22.56 14.1 22.56l22.03 44.77c4.17 8.46-83.2 83.85-83.2 83.85s-2.85 2.95-.49 7.75c2.37 4.8 292.62 569.7 292.62 569.7 14.69 29.85-14.16 57.7-44.95 62.44-32.62 5-84.8-12.48-99.36-42.07L477.03 334.84c-2.14-4.32-8.42-8.14-8.42-8.14z"/><path fill="#736357" stroke="#4A1700" stroke-miterlimit="10" d="m414.37 190.66-65.24-132.5s-26.42 3.1-31.04 3.76c-4.63.65 28.98 138.23 28.98 138.23l67.3-9.5z"/><path fill="#4A1700" d="M541.3 212.43 565.67 259l-113.34 15L431 227.15z"/><path fill="#736357" d="m444.83 235.42 11.2-1.63s10.44 1.9 16.25 10.8c5.82 8.92 4.11 18.86 3.34 22.16l-11.17 1.68c1.54-4.7 3.01-14.72-2.37-21.7-5.06-6.55-17.25-11.31-17.25-11.31zM474.63 231.3l11.2-1.62s10.44 1.9 16.26 10.8c5.81 8.92 4.1 18.86 3.33 22.16l-11.17 1.68c1.54-4.7 3.01-14.72-2.37-21.7-5.06-6.55-17.25-11.31-17.25-11.31zM503.68 227.19l11.2-1.63s10.44 1.9 16.25 10.8c5.82 8.92 4.11 18.86 3.33 22.16l-11.16 1.68c1.54-4.7 3.01-14.73-2.37-21.7-5.06-6.55-17.25-11.31-17.25-11.31z"/><g><path fill="#4A1700" d="m507.23 492.16 11.77-2.5V350s-76.78-13.5-104.53-28.59l92.76 170.75z"/><path fill="#FFF" d="m423.85 172.74 52.2-7.36-7.67-19.34c-14.51.56-28.06 1.77-40.33 3.63l-11.24 8.79 7.04 14.28zM685.16 179.4 705 221.68v37.83l-3.46 4.74c-1.8 1.9-39.38 42.23-68 68.18 1.59 3.08 3.37 6.44 5.2 10.03L875.34 311c-40-62.54-112.9-105.26-190.18-131.6z"/><path fill="#FFE05C" d="M854 435.5v85.18c18-.68 21-16.23 21-32.96V311l-236.45 31.45c13.98 27.42 34.8 68.95 59.47 117L854 435.5z"/><path fill="#FFF" d="M388.56 326.02c-68.54-37.51-72.4-45.3-75.2-51l-13.08-25.65L87.5 415.5l419.88-55.56s-93.77-20.22-118.82-33.92z"/><path fill="#FFE05C" d="M507.48 492.19 507 359.94 87 415.5V553zM698 459V335s-41.35-24-24.16-41.65l-40.17 39.07L698 459z"/><path fill="#4A1700" d="m127.21 410.37 242.9-32.17s-87.1 17.64-154.28 25.92c-31.73 3.9-88.62 6.25-88.62 6.25zM784.18 323.36 877.5 311l4.07 5.6c-40.65 4.13-97.4 6.76-97.4 6.76z"/></g></svg>